<mxfile host="65bd71144e">
    <diagram id="riJdnnE-G8-tn7jJDbU2" name="Страница 1">
        <mxGraphModel dx="650" dy="401" grid="1" gridSize="10" guides="1" tooltips="1" connect="1" arrows="1" fold="1" page="1" pageScale="1" pageWidth="827" pageHeight="1169" math="0" shadow="0">
            <root>
                <mxCell id="0"/>
                <mxCell id="1" parent="0"/>
                <mxCell id="4" value="" style="edgeStyle=none;html=1;" edge="1" parent="1" source="2" target="3">
                    <mxGeometry relative="1" as="geometry"/>
                </mxCell>
                <mxCell id="2" value="Start" style="rounded=1;whiteSpace=wrap;html=1;" vertex="1" parent="1">
                    <mxGeometry x="98.5" y="10" width="101" height="30" as="geometry"/>
                </mxCell>
                <mxCell id="6" value="" style="edgeStyle=none;html=1;entryX=0.5;entryY=0;entryDx=0;entryDy=0;" edge="1" parent="1" source="3" target="7">
                    <mxGeometry relative="1" as="geometry">
                        <mxPoint x="149" y="140" as="targetPoint"/>
                    </mxGeometry>
                </mxCell>
                <mxCell id="3" value="set initial string array&lt;br&gt;size = array length&lt;br&gt;i = 0&lt;br&gt;counter = 0&amp;nbsp;" style="shape=parallelogram;perimeter=parallelogramPerimeter;whiteSpace=wrap;html=1;fixedSize=1;" vertex="1" parent="1">
                    <mxGeometry x="74" y="60" width="150" height="80" as="geometry"/>
                </mxCell>
                <mxCell id="9" value="" style="edgeStyle=none;html=1;" edge="1" parent="1" source="7">
                    <mxGeometry relative="1" as="geometry">
                        <mxPoint x="149" y="280" as="targetPoint"/>
                    </mxGeometry>
                </mxCell>
                <mxCell id="14" value="" style="edgeStyle=none;html=1;entryX=0;entryY=0.5;entryDx=0;entryDy=0;" edge="1" parent="1" source="7" target="31">
                    <mxGeometry relative="1" as="geometry">
                        <mxPoint x="249" y="220" as="targetPoint"/>
                    </mxGeometry>
                </mxCell>
                <mxCell id="7" value="i &amp;lt; initial array length" style="rhombus;whiteSpace=wrap;html=1;" vertex="1" parent="1">
                    <mxGeometry x="76.5" y="190" width="145" height="60" as="geometry"/>
                </mxCell>
                <mxCell id="10" value="Yes" style="text;html=1;align=center;verticalAlign=middle;resizable=0;points=[];autosize=1;strokeColor=none;fillColor=none;" vertex="1" parent="1">
                    <mxGeometry x="149" y="250" width="40" height="20" as="geometry"/>
                </mxCell>
                <mxCell id="15" value="No" style="text;html=1;align=center;verticalAlign=middle;resizable=0;points=[];autosize=1;strokeColor=none;fillColor=none;" vertex="1" parent="1">
                    <mxGeometry x="221.5" y="200" width="30" height="20" as="geometry"/>
                </mxCell>
                <mxCell id="18" value="" style="edgeStyle=none;html=1;" edge="1" parent="1" source="16" target="17">
                    <mxGeometry relative="1" as="geometry"/>
                </mxCell>
                <mxCell id="27" style="edgeStyle=none;html=1;" edge="1" parent="1" source="16">
                    <mxGeometry relative="1" as="geometry">
                        <mxPoint x="149" y="480" as="targetPoint"/>
                        <Array as="points">
                            <mxPoint x="280" y="335"/>
                            <mxPoint x="280" y="480"/>
                        </Array>
                    </mxGeometry>
                </mxCell>
                <mxCell id="16" value="is the initial array &lt;br&gt;element &lt;br&gt;length&lt;br&gt;&amp;nbsp;less then 3" style="rhombus;whiteSpace=wrap;html=1;" vertex="1" parent="1">
                    <mxGeometry x="59" y="280" width="180" height="110" as="geometry"/>
                </mxCell>
                <mxCell id="21" value="" style="edgeStyle=none;html=1;" edge="1" parent="1" source="17" target="20">
                    <mxGeometry relative="1" as="geometry"/>
                </mxCell>
                <mxCell id="17" value="counter++" style="whiteSpace=wrap;html=1;" vertex="1" parent="1">
                    <mxGeometry x="104" y="430" width="90" height="30" as="geometry"/>
                </mxCell>
                <mxCell id="19" value="Yes" style="text;html=1;align=center;verticalAlign=middle;resizable=0;points=[];autosize=1;strokeColor=none;fillColor=none;" vertex="1" parent="1">
                    <mxGeometry x="149" y="400" width="40" height="20" as="geometry"/>
                </mxCell>
                <mxCell id="22" style="edgeStyle=none;html=1;" edge="1" parent="1" source="20">
                    <mxGeometry relative="1" as="geometry">
                        <mxPoint x="149" y="160" as="targetPoint"/>
                        <Array as="points">
                            <mxPoint x="40" y="515"/>
                            <mxPoint x="40" y="340"/>
                            <mxPoint x="40" y="160"/>
                        </Array>
                    </mxGeometry>
                </mxCell>
                <mxCell id="20" value="i++" style="whiteSpace=wrap;html=1;" vertex="1" parent="1">
                    <mxGeometry x="104" y="500" width="90" height="30" as="geometry"/>
                </mxCell>
                <mxCell id="28" value="No" style="text;html=1;align=center;verticalAlign=middle;resizable=0;points=[];autosize=1;strokeColor=none;fillColor=none;" vertex="1" parent="1">
                    <mxGeometry x="244" y="310" width="30" height="20" as="geometry"/>
                </mxCell>
                <mxCell id="33" value="" style="edgeStyle=none;html=1;" edge="1" parent="1" source="31" target="32">
                    <mxGeometry relative="1" as="geometry"/>
                </mxCell>
                <mxCell id="31" value="set result string array with length = counter&lt;br&gt;i = 0" style="rounded=0;whiteSpace=wrap;html=1;" vertex="1" parent="1">
                    <mxGeometry x="274" y="190" width="120" height="60" as="geometry"/>
                </mxCell>
                <mxCell id="35" value="" style="edgeStyle=none;html=1;entryX=0.5;entryY=0;entryDx=0;entryDy=0;" edge="1" parent="1" source="32" target="38">
                    <mxGeometry relative="1" as="geometry">
                        <mxPoint x="509" y="330" as="targetPoint"/>
                    </mxGeometry>
                </mxCell>
                <mxCell id="51" value="" style="edgeStyle=none;html=1;entryX=0;entryY=0.5;entryDx=0;entryDy=0;" edge="1" parent="1" source="32" target="54">
                    <mxGeometry relative="1" as="geometry">
                        <mxPoint x="689" y="220" as="targetPoint"/>
                    </mxGeometry>
                </mxCell>
                <mxCell id="32" value="&lt;span&gt;i &amp;lt; initial array length&lt;/span&gt;" style="rhombus;whiteSpace=wrap;html=1;rounded=0;" vertex="1" parent="1">
                    <mxGeometry x="489" y="190" width="140" height="60" as="geometry"/>
                </mxCell>
                <mxCell id="36" value="Yes" style="text;html=1;align=center;verticalAlign=middle;resizable=0;points=[];autosize=1;strokeColor=none;fillColor=none;" vertex="1" parent="1">
                    <mxGeometry x="509" y="250" width="40" height="20" as="geometry"/>
                </mxCell>
                <mxCell id="40" value="" style="edgeStyle=none;html=1;" edge="1" parent="1" source="38" target="39">
                    <mxGeometry relative="1" as="geometry"/>
                </mxCell>
                <mxCell id="48" style="edgeStyle=none;html=1;entryX=1;entryY=0.5;entryDx=0;entryDy=0;exitX=1;exitY=0.5;exitDx=0;exitDy=0;" edge="1" parent="1" source="38" target="45">
                    <mxGeometry relative="1" as="geometry">
                        <Array as="points">
                            <mxPoint x="679" y="335"/>
                            <mxPoint x="679" y="525"/>
                        </Array>
                    </mxGeometry>
                </mxCell>
                <mxCell id="38" value="is the initial array &lt;br&gt;element &lt;br&gt;length&lt;br&gt;&amp;nbsp;less then 3" style="rhombus;whiteSpace=wrap;html=1;" vertex="1" parent="1">
                    <mxGeometry x="469" y="280" width="180" height="110" as="geometry"/>
                </mxCell>
                <mxCell id="47" value="" style="edgeStyle=none;html=1;" edge="1" parent="1" source="39" target="45">
                    <mxGeometry relative="1" as="geometry"/>
                </mxCell>
                <mxCell id="39" value="result array element = initial array element" style="whiteSpace=wrap;html=1;" vertex="1" parent="1">
                    <mxGeometry x="469" y="417.5" width="180" height="55" as="geometry"/>
                </mxCell>
                <mxCell id="41" value="Yes" style="text;html=1;align=center;verticalAlign=middle;resizable=0;points=[];autosize=1;strokeColor=none;fillColor=none;" vertex="1" parent="1">
                    <mxGeometry x="559" y="390" width="40" height="20" as="geometry"/>
                </mxCell>
                <mxCell id="46" style="edgeStyle=none;html=1;" edge="1" parent="1" source="45">
                    <mxGeometry relative="1" as="geometry">
                        <mxPoint x="429" y="220" as="targetPoint"/>
                        <Array as="points">
                            <mxPoint x="429" y="525"/>
                        </Array>
                    </mxGeometry>
                </mxCell>
                <mxCell id="45" value="i++" style="whiteSpace=wrap;html=1;" vertex="1" parent="1">
                    <mxGeometry x="521.5" y="510" width="75" height="30" as="geometry"/>
                </mxCell>
                <mxCell id="49" value="No" style="text;html=1;align=center;verticalAlign=middle;resizable=0;points=[];autosize=1;strokeColor=none;fillColor=none;" vertex="1" parent="1">
                    <mxGeometry x="644" y="310" width="30" height="20" as="geometry"/>
                </mxCell>
                <mxCell id="52" value="No" style="text;html=1;align=center;verticalAlign=middle;resizable=0;points=[];autosize=1;strokeColor=none;fillColor=none;" vertex="1" parent="1">
                    <mxGeometry x="639" y="200" width="30" height="20" as="geometry"/>
                </mxCell>
                <mxCell id="56" value="" style="edgeStyle=none;html=1;" edge="1" parent="1" source="54" target="55">
                    <mxGeometry relative="1" as="geometry"/>
                </mxCell>
                <mxCell id="54" value="&lt;span&gt;show initial array&lt;/span&gt;&lt;br&gt;&lt;span&gt;show result array&lt;/span&gt;" style="shape=parallelogram;perimeter=parallelogramPerimeter;whiteSpace=wrap;html=1;fixedSize=1;" vertex="1" parent="1">
                    <mxGeometry x="689" y="190" width="120" height="60" as="geometry"/>
                </mxCell>
                <mxCell id="55" value="End" style="rounded=1;whiteSpace=wrap;html=1;" vertex="1" parent="1">
                    <mxGeometry x="698.5" y="280" width="101" height="30" as="geometry"/>
                </mxCell>
            </root>
        </mxGraphModel>
    </diagram>
</mxfile>